<svg width="155" height="38" viewBox="0 0 155 38" fill="none" xmlns="http://www.w3.org/2000/svg">
<path d="M28.184 7.6H45.784V10.768H38.904V30H35.096V10.768H28.184V7.6ZM56.2495 30.224C54.6495 30.224 53.2415 29.872 52.0255 29.168C50.8308 28.464 49.8922 27.4827 49.2095 26.224C48.5482 24.9653 48.2175 23.5147 48.2175 21.872C48.2175 20.3147 48.5482 18.928 49.2095 17.712C49.8708 16.496 50.7882 15.536 51.9615 14.832C53.1348 14.128 54.4682 13.776 55.9615 13.776C57.4762 13.776 58.8095 14.1067 59.9615 14.768C61.1135 15.4293 62.0095 16.3573 62.6495 17.552C63.3108 18.7253 63.6415 20.0907 63.6415 21.648C63.6415 21.904 63.6308 22.1813 63.6095 22.48C63.5882 22.7573 63.5562 23.056 63.5135 23.376H52.1215C52.2282 24.1227 52.4628 24.7733 52.8255 25.328C53.2095 25.8613 53.6895 26.2773 54.2655 26.576C54.8415 26.8747 55.5028 27.024 56.2495 27.024C57.1455 27.024 57.9455 26.8427 58.6495 26.48C59.3748 26.1173 59.8762 25.6373 60.1535 25.04L63.3215 26.096C62.6815 27.376 61.7322 28.3893 60.4735 29.136C59.2148 29.8613 57.8068 30.224 56.2495 30.224ZM59.7055 20.432C59.6842 19.7707 59.5028 19.1733 59.1615 18.64C58.8202 18.1067 58.3722 17.6907 57.8175 17.392C57.2628 17.072 56.6442 16.912 55.9615 16.912C55.3642 16.912 54.7988 17.0613 54.2655 17.36C53.7322 17.6587 53.2735 18.0747 52.8895 18.608C52.5268 19.12 52.2922 19.728 52.1855 20.432H59.7055ZM67.0503 6.96H70.6663V30H67.0503V6.96ZM82.062 30.224C80.462 30.224 79.054 29.872 77.838 29.168C76.6433 28.464 75.7047 27.4827 75.022 26.224C74.3607 24.9653 74.03 23.5147 74.03 21.872C74.03 20.3147 74.3607 18.928 75.022 17.712C75.6833 16.496 76.6007 15.536 77.774 14.832C78.9473 14.128 80.2807 13.776 81.774 13.776C83.2887 13.776 84.622 14.1067 85.774 14.768C86.926 15.4293 87.822 16.3573 88.462 17.552C89.1233 18.7253 89.454 20.0907 89.454 21.648C89.454 21.904 89.4433 22.1813 89.422 22.48C89.4007 22.7573 89.3687 23.056 89.326 23.376H77.934C78.0407 24.1227 78.2753 24.7733 78.638 25.328C79.022 25.8613 79.502 26.2773 80.078 26.576C80.654 26.8747 81.3153 27.024 82.062 27.024C82.958 27.024 83.758 26.8427 84.462 26.48C85.1873 26.1173 85.6887 25.6373 85.966 25.04L89.134 26.096C88.494 27.376 87.5447 28.3893 86.286 29.136C85.0273 29.8613 83.6193 30.224 82.062 30.224ZM85.518 20.432C85.4967 19.7707 85.3153 19.1733 84.974 18.64C84.6327 18.1067 84.1847 17.6907 83.63 17.392C83.0753 17.072 82.4567 16.912 81.774 16.912C81.1767 16.912 80.6113 17.0613 80.078 17.36C79.5447 17.6587 79.086 18.0747 78.702 18.608C78.3393 19.12 78.1047 19.728 77.998 20.432H85.518ZM99.7748 30.224C98.2388 30.224 96.8841 29.8827 95.7108 29.2C94.5374 28.496 93.6201 27.536 92.9588 26.32C92.3188 25.104 91.9988 23.6853 91.9988 22.064C91.9988 20.4213 92.3294 18.9813 92.9908 17.744C93.6521 16.5067 94.5694 15.536 95.7428 14.832C96.9374 14.128 98.3134 13.776 99.8708 13.776C101.513 13.776 102.975 14.1707 104.255 14.96C105.535 15.728 106.452 16.7733 107.007 18.096L103.711 19.184C103.433 18.5227 102.953 18 102.271 17.616C101.609 17.2107 100.852 17.008 99.9988 17.008C99.1454 17.008 98.4094 17.2213 97.7908 17.648C97.1721 18.0533 96.6921 18.6293 96.3508 19.376C96.0308 20.1227 95.8708 21.008 95.8708 22.032C95.8708 23.568 96.2441 24.784 96.9908 25.68C97.7374 26.5547 98.7614 26.992 100.063 26.992C100.895 26.992 101.641 26.8107 102.303 26.448C102.964 26.064 103.476 25.5307 103.839 24.848L107.071 25.968C106.452 27.2693 105.481 28.304 104.159 29.072C102.857 29.84 101.396 30.224 99.7748 30.224ZM119.993 30L119.673 28.048C119.161 28.7307 118.553 29.2533 117.849 29.616C117.145 29.9787 116.206 30.16 115.033 30.16C113.923 30.16 112.963 29.9787 112.153 29.616C111.342 29.232 110.713 28.7093 110.265 28.048C109.838 27.3653 109.625 26.576 109.625 25.68C109.625 24.336 110.115 23.216 111.097 22.32C112.099 21.4027 113.561 20.8373 115.481 20.624L119.673 20.176V18.928C119.673 18.416 119.449 17.9573 119.001 17.552C118.553 17.1253 117.838 16.912 116.857 16.912C116.003 16.912 115.257 17.1253 114.617 17.552C113.998 17.9573 113.582 18.576 113.369 19.408L110.233 18.256C110.638 16.848 111.438 15.7493 112.633 14.96C113.849 14.1707 115.321 13.776 117.049 13.776C119.139 13.776 120.707 14.2987 121.753 15.344C122.798 16.3893 123.321 17.7227 123.321 19.344V30H119.993ZM119.673 22.96L115.833 23.44C115.022 23.5467 114.414 23.7813 114.009 24.144C113.603 24.4853 113.401 24.9227 113.401 25.456C113.401 25.9467 113.593 26.3733 113.977 26.736C114.382 27.0773 114.926 27.248 115.609 27.248C116.483 27.248 117.219 27.088 117.817 26.768C118.435 26.448 118.894 25.9893 119.193 25.392C119.513 24.7947 119.673 24.0587 119.673 23.184V22.96ZM127.332 14H130.596L130.884 15.984C131.31 15.4507 131.812 15.0133 132.388 14.672C132.964 14.3093 133.582 14.064 134.244 13.936C134.926 13.808 135.609 13.8293 136.292 14V17.328C135.737 17.136 135.14 17.0933 134.5 17.2C133.881 17.2853 133.305 17.52 132.772 17.904C132.238 18.2667 131.801 18.7893 131.46 19.472C131.118 20.1333 130.948 20.9547 130.948 21.936V30H127.332V14ZM146.312 30.224C144.712 30.224 143.304 29.872 142.088 29.168C140.893 28.464 139.955 27.4827 139.272 26.224C138.611 24.9653 138.28 23.5147 138.28 21.872C138.28 20.3147 138.611 18.928 139.272 17.712C139.933 16.496 140.851 15.536 142.024 14.832C143.197 14.128 144.531 13.776 146.024 13.776C147.539 13.776 148.872 14.1067 150.024 14.768C151.176 15.4293 152.072 16.3573 152.712 17.552C153.373 18.7253 153.704 20.0907 153.704 21.648C153.704 21.904 153.693 22.1813 153.672 22.48C153.651 22.7573 153.619 23.056 153.576 23.376H142.184C142.291 24.1227 142.525 24.7733 142.888 25.328C143.272 25.8613 143.752 26.2773 144.328 26.576C144.904 26.8747 145.565 27.024 146.312 27.024C147.208 27.024 148.008 26.8427 148.712 26.48C149.437 26.1173 149.939 25.6373 150.216 25.04L153.384 26.096C152.744 27.376 151.795 28.3893 150.536 29.136C149.277 29.8613 147.869 30.224 146.312 30.224ZM149.768 20.432C149.747 19.7707 149.565 19.1733 149.224 18.64C148.883 18.1067 148.435 17.6907 147.88 17.392C147.325 17.072 146.707 16.912 146.024 16.912C145.427 16.912 144.861 17.0613 144.328 17.36C143.795 17.6587 143.336 18.0747 142.952 18.608C142.589 19.12 142.355 19.728 142.248 20.432H149.768Z" fill="#1A0067"/>
<path d="M22.3281 6.07182C16.7866 8.84252 17.4793 8.84251 11.9379 6.07179C6.3964 8.84251 7.02079 8.84252 1.47935 6.07182C-1.26592 4.6992 -1.33503 23.3549 11.4653 31.7832C24.2814 23.3549 25.0734 4.6992 22.3281 6.07182Z" fill="#1A0067"/>
<path d="M12 11V27M6 17H18.5" stroke="white" stroke-width="2"/>
</svg>
